# xmcd CD database file
#
# Track frame offsets:
#	150
#	13403
#	25918
#	46351
#	60286
#	78043
#	94646
#	114958
#	127238
#	148511
#	161689
#	184796
#	195239
#	209999
#	219636
#	230614
#	243724
#	256139
#	270376
#
# Disc length: 3873 seconds
#
# Revision: 1
# Processed by: cddbd v1.5.1PL2 Copyright (c) Steve Scherf et al.
# Submitted via: CDex 1.51
#
DISCID=0d0f1f13
DTITLE=Antonio Carlos Jobim - Wave - Tide
DYEAR=1970
DGENRE=Jazz
TTITLE0=Wave
TTITLE1=The Red Blouse
TTITLE2=Look To The Sky
TTITLE3=Batidinha
TTITLE4=Triste
TTITLE5=Mojave
TTITLE6=Dialogo
TTITLE7=Lamento
TTITLE8=Antigua
TTITLE9=Captain Bacardi
TTITLE10=Girl From Ipanema
TTITLE11=Carinhoso
TTITLE12=Tema Jazz
TTITLE13=Sue Ann
TTITLE14=Remember
TTITLE15=Tide
TTITLE16=Takatanga
TTITLE17=Caribe
TTITLE18=Rockanalia
EXTD=YEAR: 1970
EXTT0=
EXTT1=
EXTT2=
EXTT3=
EXTT4=
EXTT5=
EXTT6=
EXTT7=
EXTT8=
EXTT9=
EXTT10=
EXTT11=
EXTT12=
EXTT13=
EXTT14=
EXTT15=
EXTT16=
EXTT17=
EXTT18=
PLAYORDER=
